<?xml version="1.0" encoding="UTF-8"?>
<!DOCTYPE svg PUBLIC "-//W3C//DTD SVG 1.1//EN" "http://www.w3.org/Graphics/SVG/1.1/DTD/svg11.dtd">
<!-- Creator: CorelDRAW X8 -->
<svg xmlns="http://www.w3.org/2000/svg" xml:space="preserve" width="18.0594mm" height="19.1176mm" version="1.1" style="shape-rendering:geometricPrecision; text-rendering:geometricPrecision; image-rendering:optimizeQuality; fill-rule:evenodd; clip-rule:evenodd"
viewBox="0 0 391 413"
 xmlns:xlink="http://www.w3.org/1999/xlink">
 <defs>
  <style type="text/css">
   <![CDATA[
    .str0 {stroke:#373435;stroke-width:4.3257}
    .fil1 {fill:none}
    .fil0 {fill:#373435;fill-rule:nonzero}
   ]]>
  </style>
 </defs>
 <g id="Capa_x0020_1">
  <metadata id="CorelCorpID_0Corel-Layer"/>
  <path class="fil0" d="M153 247l-5 -65c-1,-13 -1,-22 -1,-26 0,-12 1,-23 5,-33 3,-11 9,-21 18,-33 -10,0 -21,2 -32,7 -11,5 -19,11 -24,18 -5,6 -7,13 -7,19 0,4 1,7 2,10 3,4 4,8 4,10 0,2 -1,4 -2,5 -1,1 -3,2 -5,2 -3,0 -5,-2 -7,-5 -3,-4 -4,-8 -4,-14 0,-11 4,-22 12,-32 8,-10 20,-17 34,-22 9,-3 23,-5 40,-7 5,0 10,0 15,-1 -12,18 -20,33 -24,44 -4,12 -5,28 -5,49 0,15 0,29 2,42l26 -27 22 -23c22,-23 37,-41 45,-54 5,-10 8,-19 8,-27 0,-4 -1,-9 -3,-15 -1,-3 -2,-6 -2,-7 0,-3 1,-5 3,-7 2,-2 4,-2 6,-2 4,0 7,1 9,5 2,3 4,9 4,16 0,7 -2,15 -5,23 -3,8 -9,19 -19,31 -10,13 -25,29 -45,50 -22,21 -43,44 -65,69z"/>
  <path class="fil0" d="M261 193l-7 0c0,-4 1,-8 1,-11 0,-12 -3,-21 -10,-27 -6,-5 -13,-8 -23,-8 -12,0 -25,4 -38,13 -12,8 -23,20 -31,35 -8,16 -12,32 -12,48 0,17 4,30 12,38 8,8 17,11 27,11 6,0 12,0 17,-2 5,-1 11,-4 16,-7 4,-14 6,-23 6,-28 0,-2 -1,-4 -3,-5 -1,-2 -4,-2 -9,-2 -1,0 -4,0 -10,0l1 -6c4,-1 8,-1 12,-1 3,0 7,0 12,0 4,0 6,0 8,0 3,0 8,0 15,0 3,-1 6,-1 9,-1l-1 7c-5,0 -8,1 -10,3 -2,2 -4,7 -6,16 -7,30 -15,52 -22,66 -7,14 -15,23 -24,29 -9,6 -19,9 -30,9 -8,0 -16,-2 -21,-6 -6,-4 -8,-8 -8,-13 0,-2 0,-4 2,-6 2,-2 4,-3 6,-3 3,0 7,3 11,7 4,5 7,8 10,9 2,2 5,3 8,3 5,0 10,-3 15,-7 8,-9 17,-29 25,-60 -5,3 -11,5 -17,7 -7,2 -13,2 -19,2 -16,0 -28,-4 -37,-12 -12,-11 -18,-27 -18,-46 0,-18 4,-35 13,-51 10,-16 22,-29 39,-40 16,-10 31,-15 46,-15 8,0 17,1 28,4 11,2 19,3 25,3 -5,17 -8,33 -8,47z"/>
  <path class="fil1 str0" d="M195 2c107,0 193,92 193,205 0,113 -86,204 -193,204 -106,0 -193,-91 -193,-204 0,-113 87,-205 193,-205z"/>
 </g>
</svg>
