<?xml version="1.0" encoding="UTF-8"?>
<!DOCTYPE svg PUBLIC "-//W3C//DTD SVG 1.1//EN" "http://www.w3.org/Graphics/SVG/1.1/DTD/svg11.dtd">
<!-- Creator: CorelDRAW X8 -->
<svg xmlns="http://www.w3.org/2000/svg" xml:space="preserve" width="61.3111mm" height="41.9326mm" version="1.1" style="shape-rendering:geometricPrecision; text-rendering:geometricPrecision; image-rendering:optimizeQuality; fill-rule:evenodd; clip-rule:evenodd"
viewBox="0 0 11397 7795"
 xmlns:xlink="http://www.w3.org/1999/xlink">
 <defs>
  <style type="text/css">
   <![CDATA[
    .str0 {stroke:#373435;stroke-width:37.1781}
    .fil3 {fill:#373435}
    .fil2 {fill:black;fill-rule:nonzero}
    .fil0 {fill:url(#id0)}
    .fil1 {fill:url(#id1)}
   ]]>
  </style>
  <linearGradient id="id0" gradientUnits="userSpaceOnUse" x1="347.931" y1="5033.93" x2="11292.1" y2="5033.93">
   <stop offset="0" style="stop-opacity:1; stop-color:#DAB985"/>
   <stop offset="0.45098" style="stop-opacity:1; stop-color:#DEC8A5"/>
   <stop offset="0.721569" style="stop-opacity:1; stop-color:white"/>
   <stop offset="1" style="stop-opacity:1; stop-color:#DAB985"/>
  </linearGradient>
  <linearGradient id="id1" gradientUnits="userSpaceOnUse" x1="-0" y1="2515.86" x2="11397.1" y2="2515.86">
   <stop offset="0" style="stop-opacity:1; stop-color:#373435"/>
   <stop offset="0.211765" style="stop-opacity:1; stop-color:#EAD2A6"/>
   <stop offset="0.470588" style="stop-opacity:1; stop-color:#F8E9C9"/>
   <stop offset="0.780392" style="stop-opacity:1; stop-color:#EAD2A6"/>
   <stop offset="1" style="stop-opacity:1; stop-color:#DAB985"/>
  </linearGradient>
 </defs>
 <g id="Capa_x0020_1">
  <metadata id="CorelCorpID_0Corel-Layer"/>
  <path class="fil0" d="M9840 3066c339,151 507,316 818,563 170,136 512,476 634,621 -136,671 -1082,2068 -1424,2268 -274,332 -948,756 -1469,932 -328,265 -1508,379 -2032,336 -557,-46 -1449,-286 -1864,-514l-1211 -487c-231,-70 -895,-256 -1113,-386 -60,-2 -104,-16 -135,-37l-1696 -462c339,-52 671,-84 1021,-170 340,-83 616,-213 941,-306 123,-167 451,-268 605,-375l554 -445c167,-192 417,-379 672,-617 275,-257 550,-434 788,-581 141,-252 960,-657 1352,-817 682,-279 1192,-364 1987,-291l393 138c295,93 1071,390 1179,630z"/>
  <path class="fil1" d="M7683 99c295,-201 1086,-52 1424,54 2025,491 2636,2502 2112,3701 -189,-320 -345,-564 -581,-859 -405,-506 -613,-527 -696,-735 -130,31 -105,64 -105,-58l-1008 -447c-423,43 -891,-108 -1482,-20 -880,131 -1957,617 -2541,1242 -65,71 -138,161 -191,201 -195,145 -31,63 -229,99 127,-385 1164,-1181 1695,-1448 716,-360 1637,-573 2567,-497 334,22 885,104 1114,257 150,10 135,-38 119,79 305,5 466,181 730,310l-1076 -810c-4,-17 -22,-17 -32,-26l-1105 -505c-732,47 -1928,-429 -3296,867 -104,99 -530,642 -634,666 -117,320 -588,943 -792,1250 -136,205 -663,934 -927,1006l-249 242c-89,58 -209,117 -299,158 -205,92 -473,166 -704,191 -526,59 -1145,-63 -1497,-296 1104,189 1604,119 2504,-443l473 -379c70,-76 61,-74 123,-140l34 -36 115 -107c47,-185 401,-607 537,-808 101,-149 172,-255 261,-392l269 -342c7,-24 28,-23 42,-34 34,-165 -15,-62 119,-243 671,-899 2206,-1827 3206,-1698zm-3516 3281l36 37c-5,-4 -24,-50 -36,-37zm-121 140c10,-11 27,30 31,33l-31 -33zm-61 72c10,-10 26,27 29,30l-29 -30zm-62 70c124,-121 36,36 38,39 1,0 -11,-6 -11,-12 0,-12 -36,-18 -27,-27zm-62 68c9,-9 23,24 25,26l-25 -26zm-62 71c8,-7 21,22 23,24l-23 -24zm-62 69c7,-7 19,20 20,21l-20 -21zm551 -630c13,-14 34,35 40,41l-40 -41zm-23 109l0 0zm-7 -11c4,3 7,7 7,11 -1,-2 -4,-6 -7,-11zm-31 -29c9,-9 23,14 31,29 -13,-11 -40,-19 -31,-29zm-544 638c5,3 9,6 9,9l-9 -9zm-10 -10l10 10c-6,-3 -14,-6 -10,-10zm-47 86l7 7c0,0 -7,-4 -7,-7zm-8 -8c4,2 8,4 8,8l-8 -8zm-9 -9l9 9c-6,-3 -12,-6 -9,-9zm-124 137c88,-82 17,12 18,13 21,15 -96,59 -18,-13z"/>
  <g id="_2970041175440">
   <path class="fil2" d="M9820 5350c-215,38 -430,-86 -545,-261 -10,-16 -41,-56 -19,-73 12,-9 39,11 47,17 52,44 36,105 145,196 98,81 227,124 362,109 5,0 17,10 10,12l0 0z"/>
   <path class="fil2" d="M8894 5378c-43,-101 -47,-143 -49,-194 -2,-33 33,-49 72,-2 62,75 42,270 178,454 77,105 196,180 325,202 7,1 26,18 11,17 -155,0 -397,-149 -537,-477z"/>
   <path class="fil2" d="M8853 6174c-270,-41 -448,-324 -516,-586 -23,-89 -28,-119 -38,-195 -6,-40 -2,-41 6,-61 6,-16 65,3 84,44 58,123 7,490 274,699 53,41 116,71 182,86 4,0 19,13 8,13z"/>
   <path class="fil2" d="M7989 6203c-416,-390 -344,-909 -207,-988 15,-9 79,17 69,99 -8,60 -91,243 -26,536 27,122 80,253 175,350 12,12 -16,3 -11,3z"/>
   <path class="fil2" d="M5520 4087c226,63 267,97 444,156 186,61 184,93 355,169 417,126 942,620 1788,558 188,-14 593,-6 1009,-29 101,-5 192,-48 291,-75 152,-40 310,-76 448,-105 398,-84 391,-17 839,-223 448,-205 -314,276 -899,494 -367,138 -769,361 -1008,375 -1363,357 -2059,-655 -2546,-798 -126,-33 -334,-178 -561,-291 -130,-65 -268,-94 -396,-149 -187,-79 -455,-133 -460,-125 -31,10 672,61 696,43z"/>
   <path class="fil2" d="M6131 4440c1,0 2,0 3,0 6,1 14,3 -4,0 0,0 1,0 1,0 0,0 0,0 0,0z"/>
   <path class="fil2" d="M7203 5879c-81,-109 -139,-210 -164,-342 -38,-196 -8,-359 44,-464 23,-46 36,-69 74,-73 28,-3 96,32 73,100 -20,59 -154,285 -81,611 14,59 31,117 62,169 3,6 -9,-1 -8,-1z"/>
   <path class="fil2" d="M6444 5397c-164,-441 173,-785 306,-754 26,6 61,26 64,55 4,32 -43,43 -117,109 -165,148 -283,379 -235,596 2,11 -22,-6 -18,-6z"/>
   <ellipse class="fil3 str0" cx="4749" cy="5408" rx="239" ry="248"/>
   <circle class="fil3 str0" cx="4124" cy="5265" r="66"/>
   <circle class="fil3 str0" cx="3544" cy="5491" r="76"/>
   <ellipse class="fil3 str0" cx="3035" cy="5617" rx="64" ry="69"/>
   <ellipse class="fil3 str0" cx="2812" cy="6053" rx="109" ry="105"/>
   <ellipse class="fil3 str0" cx="2360" cy="5743" rx="80" ry="73"/>
   <ellipse class="fil3 str0" cx="1955" cy="5841" rx="31" ry="33"/>
   <ellipse class="fil3 str0" cx="1696" cy="5971" rx="36" ry="30"/>
   <path class="fil2" d="M10091 5085c-154,27 -308,-61 -391,-187 -7,-12 -29,-40 -14,-52 9,-7 29,7 34,12 37,32 26,76 104,140 71,59 163,89 260,79 3,-1 13,7 7,8l0 0z"/>
   <path class="fil2" d="M9672 5551c-215,38 -430,-86 -545,-261 -11,-16 -41,-56 -19,-72 12,-9 39,10 46,17 53,44 37,105 146,195 98,82 226,124 362,110 4,-1 17,10 10,11l0 0z"/>
   <path class="fil2" d="M8655 5580c-44,-102 -47,-144 -49,-194 -2,-34 32,-50 72,-2 62,75 42,270 178,453 77,106 196,180 325,203 7,1 25,18 11,16 -155,0 -397,-148 -537,-476z"/>
   <path class="fil2" d="M8544 6254c-270,-40 -448,-323 -516,-586 -23,-89 -28,-118 -39,-194 -5,-41 -1,-42 6,-61 6,-16 65,3 85,43 58,124 6,491 274,699 53,42 116,72 181,86 4,1 19,13 9,13z"/>
   <path class="fil2" d="M7600 6134c-416,-389 -343,-909 -207,-988 15,-8 79,17 69,99 -8,60 -91,243 -26,536 27,122 80,253 176,351 11,11 -16,2 -12,2z"/>
   <path class="fil2" d="M6923 5653c-82,-109 -139,-210 -165,-343 -37,-196 -8,-359 45,-464 23,-45 36,-69 74,-72 27,-3 96,32 73,100 -20,59 -154,285 -81,610 13,59 31,118 61,170 4,6 -9,-1 -7,-1z"/>
  </g>
 </g>
</svg>
