<?xml version="1.0" encoding="UTF-8"?>
<!DOCTYPE svg PUBLIC "-//W3C//DTD SVG 1.1//EN" "http://www.w3.org/Graphics/SVG/1.1/DTD/svg11.dtd">
<!-- Creator: CorelDRAW X8 -->
<svg xmlns="http://www.w3.org/2000/svg" xml:space="preserve" width="18.0594mm" height="19.1176mm" version="1.1" style="shape-rendering:geometricPrecision; text-rendering:geometricPrecision; image-rendering:optimizeQuality; fill-rule:evenodd; clip-rule:evenodd"
viewBox="0 0 1463 1548"
 xmlns:xlink="http://www.w3.org/1999/xlink">
 <defs>
  <style type="text/css">
   <![CDATA[
    .str0 {stroke:#FEFEFE;stroke-width:16.1974}
    .fil1 {fill:none}
    .fil0 {fill:#FEFEFE;fill-rule:nonzero}
   ]]>
  </style>
 </defs>
 <g id="Capa_x0020_1">
  <metadata id="CorelCorpID_0Corel-Layer"/>
  <path class="fil0" d="M572 924l-18 -243c-3,-49 -5,-82 -5,-97 0,-46 6,-87 19,-125 13,-38 36,-79 69,-122 -39,0 -79,9 -120,28 -40,19 -70,40 -89,65 -19,24 -29,49 -29,74 0,11 4,23 11,36 9,16 13,28 13,36 0,8 -2,14 -7,19 -5,5 -11,7 -18,7 -11,0 -20,-5 -28,-17 -10,-14 -15,-32 -15,-54 0,-41 16,-80 46,-118 31,-38 73,-66 127,-84 34,-12 85,-20 151,-24 17,-2 35,-3 54,-5 -46,66 -75,121 -89,166 -13,44 -20,104 -20,180 0,58 3,111 9,159l96 -103 82 -84c83,-85 140,-153 169,-202 21,-37 32,-71 32,-101 0,-17 -4,-35 -11,-55 -6,-13 -8,-23 -8,-30 0,-8 3,-16 10,-23 7,-7 15,-10 25,-10 13,0 23,6 32,19 9,13 13,34 13,62 0,27 -6,55 -17,86 -11,30 -35,69 -72,115 -37,47 -93,110 -169,187 -81,81 -161,167 -243,258z"/>
  <path class="fil0" d="M978 722l-26 0c1,-16 2,-30 2,-42 0,-45 -12,-78 -35,-99 -23,-20 -52,-31 -86,-31 -47,0 -95,16 -142,48 -48,32 -87,77 -117,134 -30,57 -45,117 -45,179 0,63 15,110 45,139 30,30 63,45 100,45 23,0 44,-3 64,-9 20,-6 39,-14 58,-26 15,-52 23,-87 23,-104 0,-9 -3,-16 -9,-21 -7,-5 -18,-8 -33,-8 -6,0 -18,1 -39,3l5 -25c14,-2 29,-3 44,-3 12,0 27,1 45,1 13,1 24,1 30,1 12,0 31,-1 55,-3 13,-1 25,-2 34,-2l-5 25c-17,0 -29,4 -36,11 -7,8 -14,28 -22,59 -28,115 -55,198 -82,249 -27,51 -57,88 -91,110 -34,22 -71,33 -110,33 -34,0 -61,-7 -81,-23 -21,-15 -31,-31 -31,-48 0,-9 3,-17 10,-23 6,-6 14,-10 22,-10 11,0 24,8 39,25 16,18 29,30 38,35 9,6 19,8 30,8 21,0 39,-8 55,-24 33,-33 65,-108 97,-227 -22,12 -44,22 -67,28 -23,6 -46,9 -70,9 -59,0 -105,-15 -139,-46 -45,-42 -68,-100 -68,-174 0,-68 18,-131 52,-191 34,-60 82,-109 143,-147 61,-39 119,-58 174,-58 30,0 65,5 105,14 40,9 71,14 92,14 -18,64 -28,122 -28,174z"/>
  <path class="fil1 str0" d="M731 8c400,0 723,343 723,766 0,423 -323,766 -723,766 -399,0 -723,-343 -723,-766 0,-423 324,-766 723,-766z"/>
 </g>
</svg>
